<svg width="6360" height="2194" viewBox="0 0 6360 2194" fill="none" xmlns="http://www.w3.org/2000/svg">
<path d="M333 662C333 689.333 342 710.333 360 725C378.667 739.667 403.667 747 435 747C463 747 483.667 742.333 497 733C510.333 723.667 521.667 709.667 531 691C539.667 673.667 551.333 665 566 665H782C788 665 793 667.333 797 672C801.667 676 804 681 804 687C804 727.667 790.333 767.667 763 807C735.667 845.667 694 878 638 904C582.667 929.333 515 942 435 942C363.667 942 300 931.333 244 910C188.667 888 144.667 854.667 112 810C79.3333 764.667 63 708.333 63 641V523C63 455.667 79.3333 399.667 112 355C144.667 309.667 188.667 276.333 244 255C300 233 363.667 222 435 222C515 222 582.667 235 638 261C694 286.333 735.667 318.667 763 358C790.333 396.667 804 436.333 804 477C804 483 801.667 488.333 797 493C793 497 788 499 782 499H566C551.333 499 539.667 490.333 531 473C521.667 454.333 510.333 440.333 497 431C483.667 421.667 463 417 435 417C403.667 417 378.667 424.333 360 439C342 453.667 333 474.667 333 502V662ZM2124.22 942C2012.22 942 1923.22 917.667 1857.22 869C1791.89 820.333 1759.22 744.333 1759.22 641V259C1759.22 251.667 1761.89 245.333 1767.22 240C1772.55 234.667 1778.89 232 1786.22 232H1995.22C2002.55 232 2008.89 234.667 2014.22 240C2019.55 245.333 2022.22 251.667 2022.22 259V657C2022.22 684.333 2031.22 705.333 2049.22 720C2067.89 734.667 2092.89 742 2124.22 742C2155.55 742 2180.22 734.667 2198.22 720C2216.89 705.333 2226.22 684.333 2226.22 657V259C2226.22 251.667 2228.89 245.333 2234.22 240C2239.55 234.667 2245.89 232 2253.22 232H2462.22C2469.55 232 2475.89 234.667 2481.22 240C2486.55 245.333 2489.22 251.667 2489.22 259V641C2489.22 744.333 2456.22 820.333 2390.22 869C2324.89 917.667 2236.22 942 2124.22 942ZM3286.83 232C3294.16 232 3300.49 234.667 3305.83 240C3311.16 245.333 3313.83 251.667 3313.83 259V905C3313.83 912.333 3311.16 918.667 3305.83 924C3300.49 929.333 3294.16 932 3286.83 932H3125.83C3109.83 932 3096.49 925 3085.83 911L2867.83 633V905C2867.83 912.333 2865.16 918.667 2859.83 924C2854.49 929.333 2848.16 932 2840.83 932H2654.83C2647.49 932 2641.16 929.333 2635.83 924C2630.49 918.667 2627.83 912.333 2627.83 905V259C2627.83 251.667 2630.49 245.333 2635.83 240C2641.16 234.667 2647.49 232 2654.83 232H2816.83C2832.83 232 2845.83 238.667 2855.83 252L3073.83 553V259C3073.83 251.667 3076.49 245.333 3081.83 240C3087.16 234.667 3093.49 232 3100.83 232H3286.83ZM4168.44 232C4175.77 232 4182.1 234.667 4187.44 240C4192.77 245.333 4195.44 251.667 4195.44 259V420C4195.44 427.333 4192.77 433.667 4187.44 439C4182.1 444.333 4175.77 447 4168.44 447H3953.44V905C3953.44 912.333 3950.77 918.667 3945.44 924C3940.1 929.333 3933.77 932 3926.44 932H3720.44C3713.1 932 3706.77 929.333 3701.44 924C3696.1 918.667 3693.44 912.333 3693.44 905V447H3478.44C3471.1 447 3464.77 444.333 3459.44 439C3454.1 433.667 3451.44 427.333 3451.44 420V259C3451.44 251.667 3454.1 245.333 3459.44 240C3464.77 234.667 3471.1 232 3478.44 232H4168.44ZM5070.05 901C5071.38 903.667 5072.05 906.667 5072.05 910C5072.05 916 5069.71 921.333 5065.05 926C5061.05 930 5056.05 932 5050.05 932H4823.05C4813.71 932 4805.05 929.667 4797.05 925C4789.71 920.333 4784.38 914.333 4781.05 907L4693.05 709H4609.05V905C4609.05 912.333 4606.38 918.667 4601.05 924C4595.71 929.333 4589.38 932 4582.05 932H4366.05C4358.71 932 4352.38 929.333 4347.05 924C4341.71 918.667 4339.05 912.333 4339.05 905V259C4339.05 251.667 4341.71 245.333 4347.05 240C4352.38 234.667 4358.71 232 4366.05 232H4755.05C4815.05 232 4867.38 241.667 4912.05 261C4957.38 280.333 4992.05 308.333 5016.05 345C5040.05 381.667 5052.05 424.667 5052.05 474C5052.05 564.667 5017.05 630.333 4947.05 671L5070.05 901ZM4734.05 524C4748.71 524 4760.05 519.333 4768.05 510C4776.05 500 4780.05 487.667 4780.05 473C4780.05 458.333 4776.05 445.667 4768.05 435C4760.71 423.667 4749.38 418 4734.05 418H4609.05V524H4734.05ZM5888.66 232C5894.66 232 5899.66 234.333 5903.66 239C5908.32 243 5910.66 247.667 5910.66 253C5910.66 257 5909.66 261 5907.66 265L5655.66 682V905C5655.66 912.333 5652.99 918.667 5647.66 924C5642.32 929.333 5635.99 932 5628.66 932H5415.66C5408.32 932 5401.99 929.333 5396.66 924C5391.32 918.667 5388.66 912.333 5388.66 905V682L5137.66 265C5135.66 261 5134.66 257.333 5134.66 254C5134.66 248 5136.66 243 5140.66 239C5145.32 234.333 5150.66 232 5156.66 232H5367.66C5386.32 232 5399.99 239.667 5408.66 255L5521.66 453L5637.66 257C5647.66 240.333 5661.66 232 5679.66 232H5888.66ZM333 1900C333 1927.33 342 1948.33 360 1963C378.667 1977.67 403.667 1985 435 1985C463 1985 483.667 1980.33 497 1971C510.333 1961.67 521.667 1947.67 531 1929C539.667 1911.67 551.333 1903 566 1903H782C788 1903 793 1905.33 797 1910C801.667 1914 804 1919 804 1925C804 1965.67 790.333 2005.67 763 2045C735.667 2083.67 694 2116 638 2142C582.667 2167.33 515 2180 435 2180C363.667 2180 300 2169.33 244 2148C188.667 2126 144.667 2092.67 112 2048C79.3333 2002.67 63 1946.33 63 1879V1761C63 1693.67 79.3333 1637.67 112 1593C144.667 1547.67 188.667 1514.33 244 1493C300 1471 363.667 1460 435 1460C515 1460 582.667 1473 638 1499C694 1524.33 735.667 1556.67 763 1596C790.333 1634.67 804 1674.33 804 1715C804 1721 801.667 1726.33 797 1731C793 1735 788 1737 782 1737H566C551.333 1737 539.667 1728.33 531 1711C521.667 1692.33 510.333 1678.33 497 1669C483.667 1659.67 463 1655 435 1655C403.667 1655 378.667 1662.33 360 1677C342 1691.67 333 1712.67 333 1740V1900ZM1646.61 1881C1646.61 1983 1612.61 2058.33 1544.61 2107C1477.28 2155.67 1387.28 2180 1274.61 2180C1161.94 2180 1071.61 2155.67 1003.61 2107C936.276 2058.33 902.609 1982.33 902.609 1879V1761C902.609 1693 918.609 1636.67 950.609 1592C983.276 1546.67 1027.61 1513.33 1083.61 1492C1139.61 1470.67 1203.28 1460 1274.61 1460C1345.94 1460 1409.28 1470.67 1464.61 1492C1520.61 1513.33 1564.94 1546.33 1597.61 1591C1630.28 1635.67 1646.61 1691.67 1646.61 1759V1881ZM1172.61 1900C1172.61 1927.33 1181.61 1948.33 1199.61 1963C1218.28 1977.67 1243.28 1985 1274.61 1985C1305.94 1985 1330.61 1977.67 1348.61 1963C1367.28 1947.67 1376.61 1926.33 1376.61 1899V1741C1376.61 1713.67 1367.28 1692.67 1348.61 1678C1330.61 1662.67 1305.94 1655 1274.61 1655C1243.28 1655 1218.28 1662.33 1199.61 1677C1181.61 1691.67 1172.61 1712.67 1172.61 1740V1900ZM2124.22 2180C2012.22 2180 1923.22 2155.67 1857.22 2107C1791.89 2058.33 1759.22 1982.33 1759.22 1879V1497C1759.22 1489.67 1761.89 1483.33 1767.22 1478C1772.55 1472.67 1778.89 1470 1786.22 1470H1995.22C2002.55 1470 2008.89 1472.67 2014.22 1478C2019.55 1483.33 2022.22 1489.67 2022.22 1497V1895C2022.22 1922.33 2031.22 1943.33 2049.22 1958C2067.89 1972.67 2092.89 1980 2124.22 1980C2155.55 1980 2180.22 1972.67 2198.22 1958C2216.89 1943.33 2226.22 1922.33 2226.22 1895V1497C2226.22 1489.67 2228.89 1483.33 2234.22 1478C2239.55 1472.67 2245.89 1470 2253.22 1470H2462.22C2469.55 1470 2475.89 1472.67 2481.22 1478C2486.55 1483.33 2489.22 1489.67 2489.22 1497V1879C2489.22 1982.33 2456.22 2058.33 2390.22 2107C2324.89 2155.67 2236.22 2180 2124.22 2180ZM3286.83 1470C3294.16 1470 3300.49 1472.67 3305.83 1478C3311.16 1483.33 3313.83 1489.67 3313.83 1497V2143C3313.83 2150.33 3311.16 2156.67 3305.83 2162C3300.49 2167.33 3294.16 2170 3286.83 2170H3125.83C3109.83 2170 3096.49 2163 3085.83 2149L2867.83 1871V2143C2867.83 2150.33 2865.16 2156.67 2859.83 2162C2854.49 2167.33 2848.16 2170 2840.83 2170H2654.83C2647.49 2170 2641.16 2167.33 2635.83 2162C2630.49 2156.67 2627.83 2150.33 2627.83 2143V1497C2627.83 1489.67 2630.49 1483.33 2635.83 1478C2641.16 1472.67 2647.49 1470 2654.83 1470H2816.83C2832.83 1470 2845.83 1476.67 2855.83 1490L3073.83 1791V1497C3073.83 1489.67 3076.49 1483.33 3081.83 1478C3087.16 1472.67 3093.49 1470 3100.83 1470H3286.83ZM4168.44 1470C4175.77 1470 4182.1 1472.67 4187.44 1478C4192.77 1483.33 4195.44 1489.67 4195.44 1497V1658C4195.44 1665.33 4192.77 1671.67 4187.44 1677C4182.1 1682.33 4175.77 1685 4168.44 1685H3953.44V2143C3953.44 2150.33 3950.77 2156.67 3945.44 2162C3940.1 2167.33 3933.77 2170 3926.44 2170H3720.44C3713.1 2170 3706.77 2167.33 3701.44 2162C3696.1 2156.67 3693.44 2150.33 3693.44 2143V1685H3478.44C3471.1 1685 3464.77 1682.33 3459.44 1677C3454.1 1671.67 3451.44 1665.33 3451.44 1658V1497C3451.44 1489.67 3454.1 1483.33 3459.44 1478C3464.77 1472.67 3471.1 1470 3478.44 1470H4168.44ZM5919.66 2139C5920.99 2141.67 5921.66 2144.67 5921.66 2148C5921.66 2154 5919.32 2159.33 5914.66 2164C5910.66 2168 5905.66 2170 5899.66 2170H5672.66C5663.32 2170 5654.66 2167.67 5646.66 2163C5639.32 2158.33 5633.99 2152.33 5630.66 2145L5542.66 1947H5458.66V2143C5458.66 2150.33 5455.99 2156.67 5450.66 2162C5445.32 2167.33 5438.99 2170 5431.66 2170H5215.66C5208.32 2170 5201.99 2167.33 5196.66 2162C5191.32 2156.67 5188.66 2150.33 5188.66 2143V1497C5188.66 1489.67 5191.32 1483.33 5196.66 1478C5201.99 1472.67 5208.32 1470 5215.66 1470H5604.66C5664.66 1470 5716.99 1479.67 5761.66 1499C5806.99 1518.33 5841.66 1546.33 5865.66 1583C5889.66 1619.67 5901.66 1662.67 5901.66 1712C5901.66 1802.67 5866.66 1868.33 5796.66 1909L5919.66 2139ZM5583.66 1762C5598.32 1762 5609.66 1757.33 5617.66 1748C5625.66 1738 5629.66 1725.67 5629.66 1711C5629.66 1696.33 5625.66 1683.67 5617.66 1673C5610.32 1661.67 5598.99 1656 5583.66 1656H5458.66V1762H5583.66Z" fill="#90859A"/>
<g opacity="0.2">
<path d="M1275.12 904.617C1471.46 904.617 1630.62 756.013 1630.62 572.7C1630.62 389.388 1471.46 240.783 1275.12 240.783C1078.79 240.783 919.625 389.388 919.625 572.7C919.625 756.013 1078.79 904.617 1275.12 904.617Z" fill="#A370D2" stroke="#A370D2" stroke-width="3.125"/>
</g>
<path d="M1637.51 694.433C1638.07 693.247 1638.53 692.026 1638.9 690.779C1667.38 614.272 1667.37 531.026 1638.86 454.527C1638.5 453.339 1638.06 452.175 1637.54 451.042C1610.64 381.448 1561.44 321.278 1496.62 278.71C1431.81 236.143 1354.52 213.244 1275.28 213.127L1275.13 213L1274.97 213.127C1195.73 213.244 1118.46 236.138 1053.65 278.698C988.833 321.258 939.63 381.419 912.723 451.003C912.185 452.165 911.734 453.36 911.373 454.58C882.859 531.125 882.876 614.42 911.421 690.955C911.766 692.095 912.189 693.213 912.687 694.302C939.578 763.909 988.779 824.095 1053.6 866.674C1118.42 909.252 1195.71 932.158 1274.97 932.276L1275.13 932.406L1275.28 932.276C1354.51 932.158 1431.78 909.267 1496.59 866.714C1561.4 824.16 1610.6 764.008 1637.51 694.433ZM1180.61 711H1369.64C1350.44 765.964 1318.12 816.139 1275.13 857.74C1232.13 816.139 1199.81 765.964 1180.61 711ZM1165.1 655.681C1153.8 600.865 1153.8 544.538 1165.1 489.722H1385.15C1396.45 544.538 1396.45 600.865 1385.15 655.681H1165.1ZM949.25 572.701C949.229 544.643 953.375 516.717 961.569 489.722H1104.68C1094.94 544.668 1094.94 600.734 1104.68 655.681H961.569C953.375 628.685 949.229 600.76 949.25 572.701ZM1369.64 434.403H1180.61C1199.81 379.439 1232.13 329.263 1275.13 287.663C1318.12 329.263 1350.44 379.439 1369.64 434.403ZM1445.57 489.722H1588.68C1605.11 543.979 1605.11 601.424 1588.68 655.681H1445.57C1455.31 600.734 1455.31 544.668 1445.57 489.722ZM1565.35 434.403H1432.17C1414.43 376.117 1384.01 321.873 1342.8 275.061C1390.23 284.55 1434.8 303.77 1473.29 331.33C1511.79 358.889 1543.23 394.097 1565.35 434.403ZM1207.45 275.061C1166.24 321.873 1135.82 376.117 1118.08 434.403H984.903C1007.02 394.097 1038.46 358.889 1076.96 331.33C1115.45 303.77 1160.02 284.55 1207.45 275.061ZM984.903 711H1118.09C1135.82 769.286 1166.25 823.53 1207.45 870.342C1160.02 860.853 1115.45 841.633 1076.96 814.074C1038.46 786.515 1007.02 751.306 984.903 711ZM1342.8 870.342C1384 823.53 1414.43 769.286 1432.16 711H1565.35C1543.23 751.306 1511.79 786.515 1473.29 814.074C1434.8 841.633 1390.23 860.853 1342.8 870.342Z" fill="#A370D2" stroke="#A370D2" stroke-width="3.125"/>
<path d="M4412 1588L4960 1589.99" stroke="#A370D2" stroke-width="210" stroke-miterlimit="16" stroke-linecap="round"/>
<path d="M4412 2087L4960 2088.99" stroke="#A370D2" stroke-width="210" stroke-miterlimit="16" stroke-linecap="round"/>
<path d="M4412 1837L4960 1838.99" stroke="#A370D2" stroke-width="210" stroke-miterlimit="16" stroke-linecap="round"/>
</svg>
