<svg width="12719" height="2089" viewBox="0 0 12719 2089" fill="none" xmlns="http://www.w3.org/2000/svg">
<rect width="12719" height="2089" fill="#1E1E1E"/>
<path d="M333 662C333 689.333 342 710.333 360 725C378.667 739.667 403.667 747 435 747C463 747 483.667 742.333 497 733C510.333 723.667 521.667 709.667 531 691C539.667 673.667 551.333 665 566 665H782C788 665 793 667.333 797 672C801.667 676 804 681 804 687C804 727.667 790.333 767.667 763 807C735.667 845.667 694 878 638 904C582.667 929.333 515 942 435 942C363.667 942 300 931.333 244 910C188.667 888 144.667 854.667 112 810C79.3333 764.667 63 708.333 63 641V523C63 455.667 79.3333 399.667 112 355C144.667 309.667 188.667 276.333 244 255C300 233 363.667 222 435 222C515 222 582.667 235 638 261C694 286.333 735.667 318.667 763 358C790.333 396.667 804 436.333 804 477C804 483 801.667 488.333 797 493C793 497 788 499 782 499H566C551.333 499 539.667 490.333 531 473C521.667 454.333 510.333 440.333 497 431C483.667 421.667 463 417 435 417C403.667 417 378.667 424.333 360 439C342 453.667 333 474.667 333 502V662ZM2124.22 942C2012.22 942 1923.22 917.667 1857.22 869C1791.89 820.333 1759.22 744.333 1759.22 641V259C1759.22 251.667 1761.89 245.333 1767.22 240C1772.55 234.667 1778.89 232 1786.22 232H1995.22C2002.55 232 2008.89 234.667 2014.22 240C2019.55 245.333 2022.22 251.667 2022.22 259V657C2022.22 684.333 2031.22 705.333 2049.22 720C2067.89 734.667 2092.89 742 2124.22 742C2155.55 742 2180.22 734.667 2198.22 720C2216.89 705.333 2226.22 684.333 2226.22 657V259C2226.22 251.667 2228.89 245.333 2234.22 240C2239.55 234.667 2245.89 232 2253.22 232H2462.22C2469.55 232 2475.89 234.667 2481.22 240C2486.55 245.333 2489.22 251.667 2489.22 259V641C2489.22 744.333 2456.22 820.333 2390.22 869C2324.89 917.667 2236.22 942 2124.22 942ZM3286.83 232C3294.16 232 3300.49 234.667 3305.83 240C3311.16 245.333 3313.83 251.667 3313.83 259V905C3313.83 912.333 3311.16 918.667 3305.83 924C3300.49 929.333 3294.16 932 3286.83 932H3125.83C3109.83 932 3096.49 925 3085.83 911L2867.83 633V905C2867.83 912.333 2865.16 918.667 2859.83 924C2854.49 929.333 2848.16 932 2840.83 932H2654.83C2647.49 932 2641.16 929.333 2635.83 924C2630.49 918.667 2627.83 912.333 2627.83 905V259C2627.83 251.667 2630.49 245.333 2635.83 240C2641.16 234.667 2647.49 232 2654.83 232H2816.83C2832.83 232 2845.83 238.667 2855.83 252L3073.83 553V259C3073.83 251.667 3076.49 245.333 3081.83 240C3087.16 234.667 3093.49 232 3100.83 232H3286.83ZM4168.44 232C4175.77 232 4182.1 234.667 4187.44 240C4192.77 245.333 4195.44 251.667 4195.44 259V420C4195.44 427.333 4192.77 433.667 4187.44 439C4182.1 444.333 4175.77 447 4168.44 447H3953.44V905C3953.44 912.333 3950.77 918.667 3945.44 924C3940.1 929.333 3933.77 932 3926.44 932H3720.44C3713.1 932 3706.77 929.333 3701.44 924C3696.1 918.667 3693.44 912.333 3693.44 905V447H3478.44C3471.1 447 3464.77 444.333 3459.44 439C3454.1 433.667 3451.44 427.333 3451.44 420V259C3451.44 251.667 3454.1 245.333 3459.44 240C3464.77 234.667 3471.1 232 3478.44 232H4168.44ZM5070.05 901C5071.38 903.667 5072.05 906.667 5072.05 910C5072.05 916 5069.71 921.333 5065.05 926C5061.05 930 5056.05 932 5050.05 932H4823.05C4813.71 932 4805.05 929.667 4797.05 925C4789.71 920.333 4784.38 914.333 4781.05 907L4693.05 709H4609.05V905C4609.05 912.333 4606.38 918.667 4601.05 924C4595.71 929.333 4589.38 932 4582.05 932H4366.05C4358.71 932 4352.38 929.333 4347.05 924C4341.71 918.667 4339.05 912.333 4339.05 905V259C4339.05 251.667 4341.71 245.333 4347.05 240C4352.38 234.667 4358.71 232 4366.05 232H4755.05C4815.05 232 4867.38 241.667 4912.05 261C4957.38 280.333 4992.05 308.333 5016.05 345C5040.05 381.667 5052.05 424.667 5052.05 474C5052.05 564.667 5017.05 630.333 4947.05 671L5070.05 901ZM4734.05 524C4748.71 524 4760.05 519.333 4768.05 510C4776.05 500 4780.05 487.667 4780.05 473C4780.05 458.333 4776.05 445.667 4768.05 435C4760.71 423.667 4749.38 418 4734.05 418H4609.05V524H4734.05ZM5888.66 232C5894.66 232 5899.66 234.333 5903.66 239C5908.32 243 5910.66 247.667 5910.66 253C5910.66 257 5909.66 261 5907.66 265L5655.66 682V905C5655.66 912.333 5652.99 918.667 5647.66 924C5642.32 929.333 5635.99 932 5628.66 932H5415.66C5408.32 932 5401.99 929.333 5396.66 924C5391.32 918.667 5388.66 912.333 5388.66 905V682L5137.66 265C5135.66 261 5134.66 257.333 5134.66 254C5134.66 248 5136.66 243 5140.66 239C5145.32 234.333 5150.66 232 5156.66 232H5367.66C5386.32 232 5399.99 239.667 5408.66 255L5521.66 453L5637.66 257C5647.66 240.333 5661.66 232 5679.66 232H5888.66ZM7129.88 662C7129.88 689.333 7138.88 710.333 7156.88 725C7175.54 739.667 7200.54 747 7231.88 747C7259.88 747 7280.54 742.333 7293.88 733C7307.21 723.667 7318.54 709.667 7327.88 691C7336.54 673.667 7348.21 665 7362.88 665H7578.88C7584.88 665 7589.88 667.333 7593.88 672C7598.54 676 7600.88 681 7600.88 687C7600.88 727.667 7587.21 767.667 7559.88 807C7532.54 845.667 7490.88 878 7434.88 904C7379.54 929.333 7311.88 942 7231.88 942C7160.54 942 7096.88 931.333 7040.88 910C6985.54 888 6941.54 854.667 6908.88 810C6876.21 764.667 6859.88 708.333 6859.88 641V523C6859.88 455.667 6876.21 399.667 6908.88 355C6941.54 309.667 6985.54 276.333 7040.88 255C7096.88 233 7160.54 222 7231.88 222C7311.88 222 7379.54 235 7434.88 261C7490.88 286.333 7532.54 318.667 7559.88 358C7587.21 396.667 7600.88 436.333 7600.88 477C7600.88 483 7598.54 488.333 7593.88 493C7589.88 497 7584.88 499 7578.88 499H7362.88C7348.21 499 7336.54 490.333 7327.88 473C7318.54 454.333 7307.21 440.333 7293.88 431C7280.54 421.667 7259.88 417 7231.88 417C7200.54 417 7175.54 424.333 7156.88 439C7138.88 453.667 7129.88 474.667 7129.88 502V662ZM8443.48 643C8443.48 745 8409.48 820.333 8341.48 869C8274.15 917.667 8184.15 942 8071.48 942C7958.82 942 7868.48 917.667 7800.48 869C7733.15 820.333 7699.48 744.333 7699.48 641V523C7699.48 455 7715.48 398.667 7747.48 354C7780.15 308.667 7824.48 275.333 7880.48 254C7936.48 232.667 8000.15 222 8071.48 222C8142.82 222 8206.15 232.667 8261.48 254C8317.48 275.333 8361.82 308.333 8394.48 353C8427.15 397.667 8443.48 453.667 8443.48 521V643ZM7969.48 662C7969.48 689.333 7978.48 710.333 7996.48 725C8015.15 739.667 8040.15 747 8071.48 747C8102.82 747 8127.48 739.667 8145.48 725C8164.15 709.667 8173.48 688.333 8173.48 661V503C8173.48 475.667 8164.15 454.667 8145.48 440C8127.48 424.667 8102.82 417 8071.48 417C8040.15 417 8015.15 424.333 7996.48 439C7978.48 453.667 7969.48 474.667 7969.48 502V662ZM8921.09 942C8809.09 942 8720.09 917.667 8654.09 869C8588.76 820.333 8556.09 744.333 8556.09 641V259C8556.09 251.667 8558.76 245.333 8564.09 240C8569.43 234.667 8575.76 232 8583.09 232H8792.09C8799.43 232 8805.76 234.667 8811.09 240C8816.43 245.333 8819.09 251.667 8819.09 259V657C8819.09 684.333 8828.09 705.333 8846.09 720C8864.76 734.667 8889.76 742 8921.09 742C8952.43 742 8977.09 734.667 8995.09 720C9013.76 705.333 9023.09 684.333 9023.09 657V259C9023.09 251.667 9025.76 245.333 9031.09 240C9036.43 234.667 9042.76 232 9050.09 232H9259.09C9266.43 232 9272.76 234.667 9278.09 240C9283.43 245.333 9286.09 251.667 9286.09 259V641C9286.09 744.333 9253.09 820.333 9187.09 869C9121.76 917.667 9033.09 942 8921.09 942ZM10083.7 232C10091 232 10097.4 234.667 10102.7 240C10108 245.333 10110.7 251.667 10110.7 259V905C10110.7 912.333 10108 918.667 10102.7 924C10097.4 929.333 10091 932 10083.7 932H9922.7C9906.7 932 9893.37 925 9882.7 911L9664.7 633V905C9664.7 912.333 9662.04 918.667 9656.7 924C9651.37 929.333 9645.04 932 9637.7 932H9451.7C9444.37 932 9438.04 929.333 9432.7 924C9427.37 918.667 9424.7 912.333 9424.7 905V259C9424.7 251.667 9427.37 245.333 9432.7 240C9438.04 234.667 9444.37 232 9451.7 232H9613.7C9629.7 232 9642.7 238.667 9652.7 252L9870.7 553V259C9870.7 251.667 9873.37 245.333 9878.7 240C9884.04 234.667 9890.37 232 9897.7 232H10083.7ZM10965.3 232C10972.6 232 10979 234.667 10984.3 240C10989.6 245.333 10992.3 251.667 10992.3 259V420C10992.3 427.333 10989.6 433.667 10984.3 439C10979 444.333 10972.6 447 10965.3 447H10750.3V905C10750.3 912.333 10747.6 918.667 10742.3 924C10737 929.333 10730.6 932 10723.3 932H10517.3C10510 932 10503.6 929.333 10498.3 924C10493 918.667 10490.3 912.333 10490.3 905V447H10275.3C10268 447 10261.6 444.333 10256.3 439C10251 433.667 10248.3 427.333 10248.3 420V259C10248.3 251.667 10251 245.333 10256.3 240C10261.6 234.667 10268 232 10275.3 232H10965.3ZM12716.5 901C12717.9 903.667 12718.5 906.667 12718.5 910C12718.5 916 12716.2 921.333 12711.5 926C12707.5 930 12702.5 932 12696.5 932H12469.5C12460.2 932 12451.5 929.667 12443.5 925C12436.2 920.333 12430.9 914.333 12427.5 907L12339.5 709H12255.5V905C12255.5 912.333 12252.9 918.667 12247.5 924C12242.2 929.333 12235.9 932 12228.5 932H12012.5C12005.2 932 11998.9 929.333 11993.5 924C11988.2 918.667 11985.5 912.333 11985.5 905V259C11985.5 251.667 11988.2 245.333 11993.5 240C11998.9 234.667 12005.2 232 12012.5 232H12401.5C12461.5 232 12513.9 241.667 12558.5 261C12603.9 280.333 12638.5 308.333 12662.5 345C12686.5 381.667 12698.5 424.667 12698.5 474C12698.5 564.667 12663.5 630.333 12593.5 671L12716.5 901ZM12380.5 524C12395.2 524 12406.5 519.333 12414.5 510C12422.5 500 12426.5 487.667 12426.5 473C12426.5 458.333 12422.5 445.667 12414.5 435C12407.2 423.667 12395.9 418 12380.5 418H12255.5V524H12380.5Z" fill="#90859A"/>
<g opacity="0.2">
<path d="M1275.12 904.617C1471.46 904.617 1630.62 756.013 1630.62 572.7C1630.62 389.388 1471.46 240.783 1275.12 240.783C1078.79 240.783 919.625 389.388 919.625 572.7C919.625 756.013 1078.79 904.617 1275.12 904.617Z" fill="#A370D2" stroke="#A370D2" stroke-width="3.125"/>
</g>
<path d="M1637.51 694.433C1638.07 693.247 1638.53 692.026 1638.9 690.779C1667.38 614.272 1667.37 531.026 1638.86 454.527C1638.5 453.339 1638.06 452.175 1637.54 451.042C1610.64 381.448 1561.44 321.278 1496.62 278.71C1431.81 236.143 1354.52 213.244 1275.28 213.127L1275.13 213L1274.97 213.127C1195.73 213.244 1118.46 236.138 1053.65 278.698C988.833 321.258 939.63 381.419 912.723 451.003C912.185 452.165 911.734 453.36 911.373 454.58C882.859 531.125 882.876 614.42 911.421 690.955C911.766 692.095 912.189 693.213 912.687 694.302C939.578 763.909 988.779 824.095 1053.6 866.674C1118.42 909.252 1195.71 932.158 1274.97 932.276L1275.13 932.406L1275.28 932.276C1354.51 932.158 1431.78 909.267 1496.59 866.714C1561.4 824.16 1610.6 764.008 1637.51 694.433ZM1180.61 711H1369.64C1350.44 765.964 1318.12 816.139 1275.13 857.74C1232.13 816.139 1199.81 765.964 1180.61 711ZM1165.1 655.681C1153.8 600.865 1153.8 544.538 1165.1 489.722H1385.15C1396.45 544.538 1396.45 600.865 1385.15 655.681H1165.1ZM949.25 572.701C949.229 544.643 953.375 516.717 961.569 489.722H1104.68C1094.94 544.668 1094.94 600.734 1104.68 655.681H961.569C953.375 628.685 949.229 600.76 949.25 572.701ZM1369.64 434.403H1180.61C1199.81 379.439 1232.13 329.263 1275.13 287.663C1318.12 329.263 1350.44 379.439 1369.64 434.403ZM1445.57 489.722H1588.68C1605.11 543.979 1605.11 601.424 1588.68 655.681H1445.57C1455.31 600.734 1455.31 544.668 1445.57 489.722ZM1565.35 434.403H1432.17C1414.43 376.117 1384.01 321.873 1342.8 275.061C1390.23 284.55 1434.8 303.77 1473.29 331.33C1511.79 358.889 1543.23 394.097 1565.35 434.403ZM1207.45 275.061C1166.24 321.873 1135.82 376.117 1118.08 434.403H984.903C1007.02 394.097 1038.46 358.889 1076.96 331.33C1115.45 303.77 1160.02 284.55 1207.45 275.061ZM984.903 711H1118.09C1135.82 769.286 1166.25 823.53 1207.45 870.342C1160.02 860.853 1115.45 841.633 1076.96 814.074C1038.46 786.515 1007.02 751.306 984.903 711ZM1342.8 870.342C1384 823.53 1414.43 769.286 1432.16 711H1565.35C1543.23 751.306 1511.79 786.515 1473.29 814.074C1434.8 841.633 1390.23 860.853 1342.8 870.342Z" fill="#A370D2" stroke="#A370D2" stroke-width="3.125"/>
<path d="M11199 329L11747 330.989" stroke="#A370D2" stroke-width="210" stroke-miterlimit="16" stroke-linecap="round"/>
<path d="M11199 828L11747 829.989" stroke="#A370D2" stroke-width="210" stroke-miterlimit="16" stroke-linecap="round"/>
<path d="M11199 578L11747 579.989" stroke="#A370D2" stroke-width="210" stroke-miterlimit="16" stroke-linecap="round"/>
</svg>
